<svg xmlns="http://www.w3.org/2000/svg" width="336" height="337" viewBox="0 0 336 337" version="1.1"><path d="M 122.975 35.671 C 99.285 58.409, 91.011 80.803, 97.028 105.901 C 100.284 119.482, 107.650 133.038, 117.778 144.084 L 122.898 149.669 117.450 155.050 C 108.124 164.260, 106.641 172.906, 113.214 179.754 C 116.620 183.304, 123.460 187.223, 128.271 188.381 L 131.043 189.049 130.416 196.774 C 129.628 206.497, 131.088 217.082, 134.101 223.492 C 135.382 226.217, 139.484 231.661, 143.215 235.590 C 148.281 240.923, 150 243.442, 150 245.534 C 150 247.075, 150.489 251.298, 151.087 254.918 C 154.071 272.983, 162.597 285.561, 176.461 292.350 C 184.294 296.185, 190.021 297, 209.136 297 L 226 297 226 290.500 L 226 284 222.468 284 C 217.237 284, 212.626 281.687, 209.382 277.435 L 206.500 273.658 205.793 191.172 C 205.404 145.805, 204.954 108.105, 204.793 107.395 C 204.570 106.413, 199.602 105.984, 184 105.601 C 170.421 105.268, 161.365 104.573, 157.175 103.543 C 141.967 99.804, 131.715 91.292, 128.023 79.339 C 124.323 67.358, 126.107 48.542, 132.415 33.017 C 133.837 29.518, 135 26.508, 135 26.328 C 135 24.760, 131.552 27.439, 122.975 35.671 M 113.572 64.750 C 108.404 75.523, 107.426 90.831, 111.062 104.020 C 116.483 123.680, 129.783 142.011, 143.173 148.279 C 145.783 149.500, 147.924 150.725, 147.932 151 C 147.940 151.275, 144.925 152.850, 141.231 154.500 C 134.066 157.701, 126 164.530, 126 167.394 C 126 173.722, 131.075 176.010, 147.409 177.046 C 161.509 177.941, 169.065 179.831, 173.622 183.604 L 176.500 185.986 173.694 188.493 C 169.503 192.237, 164.268 191.945, 160.383 187.750 C 158.728 185.963, 156.878 183.327, 156.273 181.892 C 155.195 179.337, 151.879 178, 146.625 178 C 144.579 178.001, 144.491 178.487, 144.253 191.156 C 144.118 198.392, 144.430 206.942, 144.948 210.158 C 146.896 222.256, 153.457 232.188, 162.809 237.197 C 165.792 238.795, 165.942 239.144, 165.394 243.197 C 163.959 253.805, 168.311 268.729, 175.094 276.454 C 178.651 280.506, 186.877 284.974, 190.810 284.990 C 192.868 284.999, 193.087 284.592, 192.810 281.272 C 192.516 277.742, 192.277 277.507, 188.297 276.832 C 182.622 275.871, 180.254 274.464, 177.950 270.686 C 175.751 267.079, 175.470 263.257, 177.135 259.602 C 179.553 254.296, 182.914 255.429, 184.951 262.238 C 186.493 267.395, 189.615 272, 191.568 272 C 192.798 272, 193 261.351, 193 196.519 L 193 121.038 190.750 120.573 C 189.512 120.317, 182.205 119.817, 174.511 119.461 C 152.355 118.436, 137.967 114.031, 127.966 105.210 C 119.076 97.368, 114.399 84.107, 115.286 69.250 C 115.557 64.713, 115.687 61, 115.575 61 C 115.462 61, 114.561 62.688, 113.572 64.750" stroke="none" fill="#1d232b" fill-rule="evenodd"/><path d="M 138.160 3.505 C 98.810 10.970, 65.201 30.584, 39.902 60.846 C 21.792 82.510, 9.992 107.008, 3.811 135.776 C 1.800 145.135, 1.506 149.301, 1.506 168.500 C 1.506 187.699, 1.800 191.865, 3.811 201.224 C 18.624 270.164, 70.365 320.898, 138.738 333.526 C 157.622 337.014, 179.378 337.014, 198.262 333.526 C 266.590 320.906, 318.386 270.118, 333.189 201.224 C 335.200 191.865, 335.494 187.699, 335.494 168.500 C 335.494 149.181, 335.207 145.166, 333.144 135.551 C 322.434 85.650, 291.699 44.193, 248 20.705 C 232.129 12.174, 217.068 6.962, 198.183 3.466 C 179.830 0.067, 156.195 0.083, 138.160 3.505 M 122.975 35.671 C 99.285 58.409, 91.011 80.803, 97.028 105.901 C 100.284 119.482, 107.650 133.038, 117.778 144.084 L 122.898 149.669 117.450 155.050 C 108.124 164.260, 106.641 172.906, 113.214 179.754 C 116.620 183.304, 123.460 187.223, 128.271 188.381 L 131.043 189.049 130.416 196.774 C 129.628 206.497, 131.088 217.082, 134.101 223.492 C 135.382 226.217, 139.484 231.661, 143.215 235.590 C 148.281 240.923, 150 243.442, 150 245.534 C 150 247.075, 150.489 251.298, 151.087 254.918 C 154.071 272.983, 162.597 285.561, 176.461 292.350 C 184.294 296.185, 190.021 297, 209.136 297 L 226 297 226 290.500 L 226 284 222.468 284 C 217.237 284, 212.626 281.687, 209.382 277.435 L 206.500 273.658 205.793 191.172 C 205.404 145.805, 204.954 108.105, 204.793 107.395 C 204.570 106.413, 199.602 105.984, 184 105.601 C 170.421 105.268, 161.365 104.573, 157.175 103.543 C 141.967 99.804, 131.715 91.292, 128.023 79.339 C 124.323 67.358, 126.107 48.542, 132.415 33.017 C 133.837 29.518, 135 26.508, 135 26.328 C 135 24.760, 131.552 27.439, 122.975 35.671 M 113.572 64.750 C 108.404 75.523, 107.426 90.831, 111.062 104.020 C 116.483 123.680, 129.783 142.011, 143.173 148.279 C 145.783 149.500, 147.924 150.725, 147.932 151 C 147.940 151.275, 144.925 152.850, 141.231 154.500 C 134.066 157.701, 126 164.530, 126 167.394 C 126 173.722, 131.075 176.010, 147.409 177.046 C 161.509 177.941, 169.065 179.831, 173.622 183.604 L 176.500 185.986 173.694 188.493 C 169.503 192.237, 164.268 191.945, 160.383 187.750 C 158.728 185.963, 156.878 183.327, 156.273 181.892 C 155.195 179.337, 151.879 178, 146.625 178 C 144.579 178.001, 144.491 178.487, 144.253 191.156 C 144.118 198.392, 144.430 206.942, 144.948 210.158 C 146.896 222.256, 153.457 232.188, 162.809 237.197 C 165.792 238.795, 165.942 239.144, 165.394 243.197 C 163.959 253.805, 168.311 268.729, 175.094 276.454 C 178.651 280.506, 186.877 284.974, 190.810 284.990 C 192.868 284.999, 193.087 284.592, 192.810 281.272 C 192.516 277.742, 192.277 277.507, 188.297 276.832 C 182.622 275.871, 180.254 274.464, 177.950 270.686 C 175.751 267.079, 175.470 263.257, 177.135 259.602 C 179.553 254.296, 182.914 255.429, 184.951 262.238 C 186.493 267.395, 189.615 272, 191.568 272 C 192.798 272, 193 261.351, 193 196.519 L 193 121.038 190.750 120.573 C 189.512 120.317, 182.205 119.817, 174.511 119.461 C 152.355 118.436, 137.967 114.031, 127.966 105.210 C 119.076 97.368, 114.399 84.107, 115.286 69.250 C 115.557 64.713, 115.687 61, 115.575 61 C 115.462 61, 114.561 62.688, 113.572 64.750" stroke="none" fill="#a1236b" fill-rule="evenodd"/></svg>